<?xml version="1.0" encoding="UTF-8"?>
<svg version="1.1" xmlns="http://www.w3.org/2000/svg" width="517" height="517">
<path d="M0 0 C1.37536712 -0.00300363 2.7507334 -0.00640885 4.12609863 -0.01017761 C7.81459106 -0.01890101 11.50306019 -0.02135077 15.19156194 -0.0219934 C17.51031874 -0.02271076 19.82906987 -0.02485788 22.14782524 -0.02749062 C30.27807863 -0.03670659 38.40831578 -0.04083037 46.53857422 -0.04003906 C54.05077197 -0.03943979 61.56289758 -0.04997172 69.07507712 -0.06578273 C75.57928231 -0.07897172 82.08346425 -0.08421823 88.58768266 -0.08358365 C92.44804367 -0.08333191 96.30834045 -0.08599973 100.16868782 -0.0967617 C142.32885019 -0.20584607 183.33055015 3.23715107 216.51928711 32.14526367 C217.36104492 32.87745117 218.20280273 33.60963867 219.07006836 34.36401367 C221.584638 36.59240316 224.057541 38.85877432 226.51928711 41.14526367 C227.17413086 41.73436523 227.82897461 42.3234668 228.50366211 42.93041992 C251.53389048 64.58073792 266.43010583 98.63571217 267.63415527 130.15196228 C267.70089277 133.75541007 267.73656979 137.35766055 267.75756836 140.96166992 C267.76164389 141.61962996 267.76571941 142.27758999 267.76991844 142.9554882 C267.79067157 146.44167628 267.80501651 149.92782632 267.81445312 153.4140625 C267.82546684 156.96846136 267.85983845 160.52222553 267.89962482 164.07640171 C267.9260876 166.85038715 267.934171 169.62422831 267.9377346 172.39832878 C267.94482102 174.33168945 267.97112509 176.26495023 267.99812317 178.19813538 C267.95090561 197.79699899 261.20972429 212.43546237 247.51928711 226.14526367 C246.82448242 226.85166992 246.12967773 227.55807617 245.41381836 228.28588867 C229.11548082 243.74410572 205.47014678 242.74310142 184.60391212 242.66816235 C180.831499 242.65902221 177.05915689 242.67312547 173.28675842 242.68408203 C165.91743494 242.70177728 158.54827531 242.6980677 151.17894566 242.68643147 C145.18450469 242.67736174 139.19010933 242.67618836 133.19566345 242.68052673 C132.33931351 242.68113967 131.48296357 242.6817526 130.60066363 242.6823841 C128.86047286 242.68366313 127.12028211 242.68495999 125.38009137 242.68627447 C109.09980431 242.69765391 92.81960766 242.68460808 76.53933543 242.663073 C62.59982748 242.64520442 48.66045282 242.64830927 34.72094727 242.66674805 C18.49501814 242.68820149 2.26916805 242.69655552 -13.95677328 242.68429899 C-15.69021192 242.68302493 -17.42365057 242.68176744 -19.15708923 242.68052673 C-20.00975633 242.67990963 -20.86242343 242.67929253 -21.74092892 242.67865673 C-27.72135346 242.67521722 -33.70172746 242.68100182 -39.68214417 242.69044495 C-46.98006224 242.7017162 -54.27780844 242.698518 -61.57570708 242.67732197 C-65.29223554 242.66687995 -69.00847848 242.66257104 -72.7250042 242.67591858 C-95.5247032 242.75089604 -116.73360851 242.22805809 -134.16430664 225.49682617 C-134.9287207 224.72081055 -135.69313477 223.94479492 -136.48071289 223.14526367 C-137.21418945 222.41049805 -137.94766602 221.67573242 -138.70336914 220.91870117 C-154.81651477 203.87189664 -154.10974355 182.45021493 -153.93023682 160.42364502 C-153.91427299 157.64764057 -153.9243143 154.87197551 -153.93395615 152.09596157 C-153.974438 137.55617836 -153.75775306 123.36936814 -150.48071289 109.14526367 C-150.1523645 107.69373901 -150.1523645 107.69373901 -149.81738281 106.21289062 C-149.23327001 103.84886325 -148.57799514 101.53289069 -147.85571289 99.20776367 C-147.604104 98.38912842 -147.35249512 97.57049316 -147.09326172 96.72705078 C-142.45963551 82.30718392 -135.71361479 69.14964746 -126.48071289 57.14526367 C-125.77301758 56.21584961 -125.06532227 55.28643555 -124.33618164 54.32885742 C-106.44085045 31.66143791 -83.9611278 15.98370785 -56.48071289 7.14526367 C-55.82409668 6.93144043 -55.16748047 6.71761719 -54.4909668 6.49731445 C-36.71914854 0.79972812 -18.52057534 -0.0067218 0 0 Z M-78.48071289 62.14526367 C-79.40883789 62.91354492 -80.33696289 63.68182617 -81.29321289 64.47338867 C-100.93198356 81.3845523 -113.08841729 105.6010467 -116.48071289 131.14526367 C-116.77443805 135.27285223 -116.85387788 139.38699483 -116.88696289 143.52416992 C-116.89836304 144.65749252 -116.90976318 145.79081512 -116.92150879 146.95848083 C-116.94025878 149.33572741 -116.95341636 151.7130242 -116.96118164 154.09033203 C-116.98068535 157.70266292 -117.04290319 161.31275717 -117.10571289 164.92456055 C-117.11876854 167.24941702 -117.12927122 169.57428952 -117.13696289 171.89916992 C-117.16165649 172.96406143 -117.1863501 174.02895294 -117.21179199 175.12611389 C-117.16125319 183.72750423 -114.53706461 190.47863703 -108.85705566 197.01319885 C-100.94509425 204.36636191 -92.45072391 205.73583075 -81.97612 205.66665649 C-80.1213109 205.67813314 -80.1213109 205.67813314 -78.22903091 205.68984163 C-74.81755784 205.70684325 -71.40695205 205.70606013 -67.99550498 205.69748044 C-64.30823708 205.69253057 -60.62106887 205.71059331 -56.93383789 205.72555542 C-49.71798294 205.75101179 -42.50227696 205.7546415 -35.28638466 205.74995489 C-29.41855025 205.74638379 -23.55076093 205.749898 -17.6829319 205.75840378 C-16.84668153 205.75959416 -16.01043116 205.76078453 -15.14883986 205.76201098 C-13.44979144 205.76443458 -11.75074302 205.76686285 -10.05169461 205.76929574 C5.87076216 205.79103262 21.79313416 205.78672864 37.71559568 205.77452604 C52.26640801 205.76419066 66.81695242 205.78669304 81.36771176 205.82472248 C96.3249241 205.86351311 111.28200982 205.87998527 126.23927277 205.87247598 C134.63002127 205.86865677 143.02054182 205.87357949 151.41124916 205.90190506 C158.55506579 205.92577814 165.69851419 205.92849236 172.8423361 205.90432473 C176.48352876 205.89257797 180.1240487 205.89025985 183.76519585 205.91432953 C187.72170829 205.94017875 191.67721099 205.91904505 195.63374329 205.89370728 C197.34053952 205.91583013 197.34053952 205.91583013 199.08181649 205.93839991 C207.93936519 205.81951065 215.77859167 203.33635014 222.52412969 197.37285101 C224.06806394 195.71798213 225.30028144 194.05055824 226.51928711 192.14526367 C226.88284805 191.58839371 227.246409 191.03152374 227.62098694 190.45777893 C231.01915753 184.48642333 231.08626659 179.05532762 231.01538086 172.29760742 C231.01683609 171.16811172 231.01829132 170.03861603 231.01979065 168.87489319 C231.018136 166.49046241 231.00662368 164.10602046 230.98583984 161.72167969 C230.95707049 158.11825792 230.96520555 154.51632743 230.97827148 150.9128418 C230.95254011 122.89088526 224.62667927 96.55296324 205.51928711 75.14526367 C204.50801758 73.92129883 204.50801758 73.92129883 203.47631836 72.67260742 C185.54270154 51.53772567 158.98765543 39.76732749 131.71062088 37.3583889 C125.94762218 36.97352147 120.18708124 36.99794116 114.41333008 37 C113.03044038 36.99700033 111.6475515 36.99359597 110.2646637 36.98982239 C106.53908129 36.98105871 102.81352192 36.97864747 99.0879302 36.9780066 C96.75047287 36.97729156 94.41302124 36.97514867 92.07556534 36.97250938 C83.89273971 36.96328003 75.70993027 36.95917132 67.52709961 36.95996094 C59.94558559 36.96056054 52.36414299 36.95002561 44.78264701 36.93421727 C38.23613814 36.92106217 31.68965238 36.91578038 25.14313042 36.91641635 C21.2498937 36.91666907 17.35672051 36.91394451 13.46349716 36.9032383 C-20.12500827 36.81735394 -51.85401547 39.16388792 -78.48071289 62.14526367 Z " fill="#000000" transform="translate(201.480712890625,264.854736328125)"/>
<path d="M0 0 C1.34384766 1.11375 1.34384766 1.11375 2.71484375 2.25 C8.90807019 7.5939242 14.04503019 13.50472122 19 20 C19.90878906 21.16789062 19.90878906 21.16789062 20.8359375 22.359375 C40.50864767 48.88637786 46.44392261 83.63215926 41.8203125 115.8671875 C37.16752281 141.26521548 25.9268774 162.64881781 8 181 C7.27296875 181.78890625 6.5459375 182.5778125 5.796875 183.390625 C-15.63770511 206.09540245 -46.83549755 216.31367685 -77.44775391 217.35180664 C-110.68836575 217.7274738 -140.93290808 205.7702914 -165 183 C-165.82371094 182.24074219 -166.64742187 181.48148438 -167.49609375 180.69921875 C-190.23084712 159.0284944 -201.52879028 128.22249546 -202.35131836 97.15844727 C-202.66066875 62.43147413 -190.57758033 32.09133224 -166.375 7.3125 C-165.59125 6.549375 -164.8075 5.78625 -164 5 C-163.53851563 4.49339844 -163.07703125 3.98679687 -162.6015625 3.46484375 C-121.28140903 -40.77795472 -43.96815056 -36.68789616 0 0 Z M-122 21 C-122.99644531 21.54527344 -123.99289063 22.09054688 -125.01953125 22.65234375 C-142.65945458 32.97384396 -156.04169566 51.85622958 -161.9921875 71.23046875 C-168.03314443 94.38747031 -164.80308534 116.66990208 -153.08203125 137.390625 C-148.7168411 144.18672943 -143.65564886 150.24389557 -138 156 C-137.38769531 156.62519531 -136.77539062 157.25039062 -136.14453125 157.89453125 C-120.56385676 172.61145832 -97.79887177 180.45316577 -76.65234375 180.2109375 C-53.87068969 178.89520561 -34.07750606 169.04848529 -18 153 C-17.38898438 152.40058594 -16.77796875 151.80117187 -16.1484375 151.18359375 C-1.02194021 135.19371191 6.80787657 112.53025006 6.28515625 90.7578125 C4.41681627 66.13667474 -7.47561759 44.13577891 -26 28 C-55.34311009 6.05551987 -90.11923713 2.77606211 -122 21 Z " fill="#000000" transform="translate(338,38)"/>
</svg>
