<svg xmlns="http://www.w3.org/2000/svg" viewBox="0 0 16 16" fill="#000000" id="Heart--Streamline-Phosphor" height="16" width="16">
  <desc>
    Heart Streamline Icon: https://streamlinehq.com
  </desc>
  <path d="M11.5 1.2815875c-1.4455 0 -2.7111 0.6216 -3.5 1.6723 -0.7889 -1.0507 -2.0545 -1.6723 -3.5 -1.6723 -2.39579375 0.0027 -4.3373 1.9442 -4.34 4.34 0 4.9 7.2653 8.8662 7.5747 9.03 0.16564375 0.08910625 0.36495625 0.08910625 0.5306 0 0.3094 -0.1638 7.5747 -4.13 7.5747 -9.03 -0.0027 -2.3958 -1.94420625 -4.3373 -4.34 -4.34Zm-3.5 12.236c-1.2782 -0.7448 -6.72 -4.1377 -6.72 -7.896 0.0023125 -1.7774 1.4426 -3.2176875 3.22 -3.22 1.3615 0 2.5046 0.7252 2.982 1.89 0.1638 0.39875625 0.6978375 0.47065625 0.961275 0.129425 0.03058125 -0.0396125 0.0557125 -0.0831375 0.074725 -0.129425 0.4774 -1.1669 1.6205 -1.89 2.982 -1.89 1.7774 0.0023125 3.2176875 1.4426 3.22 3.22 0 3.7527 -5.4432 7.1505 -6.72 7.896Z" stroke-width="0.0625"></path>
</svg>